<svg id="Layer_1" data-name="Layer 1" xmlns="http://www.w3.org/2000/svg" xmlns:xlink="http://www.w3.org/1999/xlink" viewBox="0 0 2880 2160">
  <defs>
    <style>
      .cls-1 {
        fill: url(#linear-gradient);
      }

      .cls-2 {
        fill: #fff;
      }
    </style>
    <linearGradient id="linear-gradient" x1="180" y1="2340" x2="2700" y2="-180" gradientUnits="userSpaceOnUse">
      <stop offset="0" stop-color="#0e4b9c"/>
      <stop offset="0.022" stop-color="#0c56a4"/>
      <stop offset="0.084" stop-color="#0771b5"/>
      <stop offset="0.147" stop-color="#0384c2"/>
      <stop offset="0.212" stop-color="#018fca"/>
      <stop offset="0.281" stop-color="#0093cc"/>
      <stop offset="0.745" stop-color="#47b187"/>
      <stop offset="1" stop-color="#226e2f"/>
    </linearGradient>
  </defs>
  <title>ComingSoon</title>
  <rect class="cls-1" width="2880" height="2160"/>
  <g>
    <path class="cls-2" d="M881.082,575.809v67.383q-49.318-41.256-102.051-41.26-58.107,0-97.9,41.748-40.043,41.508-40.039,101.563,0,59.326,40.039,100.1t98.145,40.771q30.029,0,51.025-9.766a147.067,147.067,0,0,0,24.292-13.184,286.827,286.827,0,0,0,26.489-20.02v68.6q-48.832,27.592-102.539,27.588-80.812,0-137.939-56.4-56.889-56.883-56.885-137.207,0-72.018,47.607-128.418,58.594-69.088,151.611-69.092Q833.715,548.221,881.082,575.809Z"/>
    <path class="cls-2" d="M931.131,811.893q0-51.51,36.865-87.646t89.844-36.133q53.221,0,90.332,36.377,36.621,36.381,36.621,89.355,0,53.467-36.865,89.6-37.113,35.889-91.064,35.889-53.467,0-89.6-36.621Q931.129,866.584,931.131,811.893Zm56.152.977q0,35.648,19.043,56.4,19.529,21,51.514,21,32.227,0,51.514-20.752t19.287-55.42q0-34.664-19.287-55.42-19.535-20.994-51.514-21-31.494,0-51.025,21T987.283,812.87Z"/>
    <path class="cls-2" d="M1242.9,694.706h54.932v21.973q15.867-16.6,27.1-22.461,11.959-6.1,30.029-6.1,40.283,0,63.721,35.156,25.875-35.156,70.068-35.156,80.32,0,80.322,97.412V932.5h-55.176V800.418q0-34.178-8.3-48.34-8.549-14.4-28.076-14.4-22.705,0-33.081,17.09T1434.061,809.7V932.5h-55.176V801.151q0-63.475-36.621-63.477-23.2,0-33.813,17.334T1297.83,809.7V932.5H1242.9Z"/>
    <path class="cls-2" d="M1630.105,595.829a35.848,35.848,0,0,1,35.645-35.4,34.6,34.6,0,0,1,25.391,10.5,33.8,33.8,0,0,1,10.5,25.146,34.592,34.592,0,0,1-10.5,25.391,33.789,33.789,0,0,1-25.146,10.5,35.845,35.845,0,0,1-35.889-36.133Zm63.232,98.877V932.5h-54.932V694.706Z"/>
    <path class="cls-2" d="M1762.918,694.706h55.176v21.973q28.8-28.564,64.941-28.564,41.5,0,64.7,26.123,20.016,22.219,20.02,72.51V932.5h-55.176V799.686q0-35.156-9.766-48.584-9.521-13.67-34.668-13.672-27.346,0-38.818,18.066-11.232,17.824-11.23,62.256V932.5h-55.176Z"/>
    <path class="cls-2" d="M2267.068,926.883q0,16.846-1.1,29.663a206.493,206.493,0,0,1-3.052,22.583q-5.859,26.854-22.949,46.143-32.227,37.107-88.623,37.109-47.607,0-78.369-25.635-31.74-26.367-36.621-73h55.176q3.17,17.578,10.5,27.1,17.086,22.213,49.8,22.217,60.3,0,60.3-73.975v-33.2q-32.719,33.451-75.439,33.447-48.586,0-79.59-35.156-31.254-35.643-31.25-89.111,0-52,29.053-88.379,31.248-38.572,82.52-38.574,44.918,0,74.707,33.447V694.706h54.932ZM2214.334,814.09q0-34.664-18.555-55.42-18.8-21.24-48.1-21.24-31.254,0-49.316,23.193-16.359,20.754-16.357,53.711,0,32.473,16.357,53.223,17.818,22.705,49.316,22.705t49.8-22.949Q2214.334,846.565,2214.334,814.09Z"/>
    <path class="cls-2" d="M1104.471,1211.7l-46.143,27.344q-12.943-22.459-24.658-29.3-12.211-7.811-31.494-7.812-23.684,0-39.307,13.428-15.627,13.184-15.625,33.2,0,27.592,41.016,44.434l37.6,15.381q45.9,18.557,67.139,45.288t21.24,65.552q0,52-34.668,85.938-34.916,34.184-86.67,34.18-49.072,0-81.055-29.053-31.494-29.051-39.307-81.787l57.617-12.7q3.9,33.205,13.672,45.9,17.578,24.416,51.27,24.414,26.607,0,44.189-17.822t17.578-45.166a63.418,63.418,0,0,0-3.052-20.142,51.2,51.2,0,0,0-9.521-16.846,76.2,76.2,0,0,0-16.724-14.4,161.472,161.472,0,0,0-24.414-12.817l-36.377-15.137q-77.4-32.713-77.393-95.7,0-42.48,32.471-71.045,32.467-28.8,80.811-28.809Q1067.85,1148.222,1104.471,1211.7Z"/>
    <path class="cls-2" d="M1161.111,1411.894q0-51.51,36.865-87.646t89.844-36.133q53.221,0,90.332,36.377,36.621,36.381,36.621,89.355,0,53.467-36.865,89.6-37.113,35.889-91.064,35.889-53.467,0-89.6-36.621Q1161.109,1466.585,1161.111,1411.894Zm56.152.977q0,35.648,19.043,56.4,19.529,21,51.514,21,32.227,0,51.514-20.752t19.287-55.42q0-34.664-19.287-55.42-19.535-20.994-51.514-21-31.494,0-51.025,21T1217.264,1412.87Z"/>
    <path class="cls-2" d="M1461.648,1411.894q0-51.51,36.865-87.646t89.844-36.133q53.221,0,90.332,36.377,36.621,36.381,36.621,89.355,0,53.467-36.865,89.6-37.113,35.889-91.064,35.889-53.467,0-89.6-36.621Q1461.646,1466.585,1461.648,1411.894Zm56.152.977q0,35.648,19.043,56.4,19.529,21,51.514,21,32.227,0,51.514-20.752t19.287-55.42q0-34.664-19.287-55.42-19.535-20.994-51.514-21-31.494,0-51.025,21T1517.8,1412.87Z"/>
    <path class="cls-2" d="M1773.416,1294.706h55.176v21.973q28.8-28.564,64.941-28.564,41.5,0,64.7,26.123,20.016,22.219,20.02,72.51V1532.5h-55.176V1399.687q0-35.156-9.766-48.584-9.521-13.67-34.668-13.672-27.346,0-38.818,18.066-11.232,17.824-11.23,62.256V1532.5h-55.176Z"/>
  </g>
</svg>
